Coordinates
version=1
nRows=5
nColumns=40
inDegrees=yes

Units are S.I. units (second, meters, Newtons, ...)
Angles are in degrees.

endheader
time	pelvis_tilt	pelvis_list	pelvis_rotation	pelvis_tx	pelvis_ty	pelvis_tz	hip_flexion_r	hip_adduction_r	hip_rotation_r	knee_angle_r	knee_angle_r_beta	ankle_angle_r	subtalar_angle_r	mtp_angle_r	hip_flexion_l	hip_adduction_l	hip_rotation_l	knee_angle_l	knee_angle_l_beta	ankle_angle_l	subtalar_angle_l	mtp_angle_l	lumbar_extension	lumbar_bending	lumbar_rotation	arm_flex_r	arm_add_r	arm_rot_r	elbow_flex_r	pro_sup_r	wrist_flex_r	wrist_dev_r	arm_flex_l	arm_add_l	arm_rot_l	elbow_flex_l	pro_sup_l	wrist_flex_l	wrist_dev_l
     18.31000000	     -2.56091258	     -6.32240582	      3.01106436	      1.05413003	      0.93163515	      0.50785345	     11.62829814	      3.82928053	    -19.79930725	     15.09650206	     15.09650206	      8.69999447	      5.24682776	     -5.18395390	     34.32690024	    -14.91961789	      1.96220163	     67.89150127	     67.89150127	     10.64801999	    -18.78758774	     13.36723996	    -13.40061559	      7.80602014	      5.82439500	     12.79367077	    -15.44525415	      0.31779898	     39.23432649	     44.44566445	      0.00000000	      0.00000000	     -0.41338187	     -8.32919198	     -1.67143837	     64.34885419	     44.80718034	      0.00000000	      0.00000000
     18.32164286	     -2.67140002	     -6.34161331	      3.15103065	      1.05248025	      0.93189889	      0.50842554	     11.12640988	      3.96319065	    -19.76433448	     14.83020424	     14.83020424	      8.95254439	      5.22894403	     -5.23549903	     35.75181867	    -14.90726826	      1.89478291	     66.05555752	     66.05555752	     10.65658019	    -18.74072172	     13.56184133	    -13.41031185	      7.68783950	      6.30925987	     14.95664716	    -15.92454020	      0.10699298	     40.23475052	     44.43821186	      0.00000000	      0.00000000	     -1.91402239	     -8.17540091	     -1.48565469	     63.17091708	     44.77847377	      0.00000000	      0.00000000
     18.33328571	     -2.66196861	     -6.42414272	      3.50005301	      1.05101636	      0.93250626	      0.50879737	     10.13133757	      4.28424690	    -19.93412006	     13.82791992	     13.82791992	      8.96360027	      5.43169537	     -5.17569747	     36.86797489	    -14.75850987	      2.08154711	     63.86632599	     63.86632599	     10.52813552	    -18.74544830	     13.79513345	    -13.47946987	      7.77196612	      4.85845540	     17.93319448	    -15.17234617	      0.07066191	     42.62086733	     44.38443470	      0.00000000	      0.00000000	     -3.37913335	     -8.48822730	     -1.43314637	     58.90973030	     44.75559354	      0.00000000	      0.00000000
     18.34492857	     -2.73797719	     -6.46296583	      3.68819292	      1.04955574	      0.93284355	      0.50909537	      9.39545632	      4.47548850	    -20.12106275	     13.15416096	     13.15416096	      8.97338078	      5.80247600	     -5.59757437	     37.83081682	    -14.62723764	      2.07341578	     61.41766012	     61.41766012	     10.18854641	    -18.66165946	     13.71126372	    -13.42015121	      7.83550591	      5.55286979	     19.47688352	    -16.01199785	      0.60693426	     45.09751902	     44.33778226	      0.00000000	      0.00000000	     -2.63040450	     -7.48867200	     -2.41009215	     51.93597682	     44.90280788	      0.00000000	      0.00000000
     18.35657143	     -2.79967682	     -6.44318003	      3.83839999	      1.04810731	      0.93304961	      0.50934867	      8.74365188	      4.59252199	    -20.14076124	     12.67946902	     12.67946902	      9.14593868	      5.92853858	     -5.60787737	     38.56346106	    -14.36244276	      2.11930289	     58.71769971	     58.71769971	      9.93928048	    -18.54831735	     13.99764581	    -13.45777307	      7.72194196	      5.38746019	     21.82763872	    -16.00721832	      0.44513630	     46.78923285	     44.30818309	      0.00000000	      0.00000000	     -4.00462237	     -7.54065397	     -2.31320768	     50.09167130	     44.88636092	      0.00000000	      0.00000000
